Coordinates
version=1
nRows=11
nColumns=36
inDegrees=yes

Units are S.I. units (second, meters, Newtons, ...)
If the header above contains a line with 'inDegrees', this indicates whether rotational values are in degrees (yes) or radians (no).

endheader
time	pelvis_tilt	pelvis_list	pelvis_rotation	pelvis_tx	pelvis_ty	pelvis_tz	hip_flexion_r	hip_adduction_r	hip_rotation_r	knee_angle_r	knee_angle_r_beta	ankle_angle_r	subtalar_angle_r	mtp_angle_r	hip_flexion_l	hip_adduction_l	hip_rotation_l	knee_angle_l	knee_angle_l_beta	ankle_angle_l	subtalar_angle_l	mtp_angle_l	lumbar_extension	lumbar_bending	lumbar_rotation	arm_flex_r	arm_add_r	arm_rot_r	elbow_flex_r	pro_sup_r	arm_flex_l	arm_add_l	arm_rot_l	elbow_flex_l	pro_sup_l
      5.43333330	     -0.28764027	      3.50857221	      7.24361935	     -0.10153805	      1.16402584	      0.11448061	      3.80701796	     -3.48575250	     -0.56405099	      5.31314867	      0.09273194	     10.73314442	     -3.55764046	     -7.49999987	      4.44110316	      2.53589618	      4.60195255	      3.88326119	      0.06777569	      5.92023468	     -1.26203620	     -7.49999987	     -0.92056104	      0.21001777	      7.73559079	    -13.44710171	     -0.66642735	     13.72732133	     23.17252268	    103.08697380	      2.33274917	      2.38225731	    142.54122115	     27.65171803	    109.73568753
      5.45000000	     -0.05388763	      3.52409444	      7.05038673	     -0.10622637	      1.16653631	      0.11458421	      3.47476166	     -3.43577658	     -0.74988886	      4.72496120	      0.08246613	     10.19793544	     -3.02485267	     -7.49999987	      4.00306924	      2.47519110	      4.42921840	      3.36167686	      0.05867233	      5.30522409	     -1.17022810	     -7.49999987	     -1.55496114	      0.15047536	      7.51719100	    -12.39388834	     -0.94992112	     11.83434541	     22.19008118	    103.23595053	      1.23695072	      2.20907895	    147.20500136	     25.01000249	    107.56094456
      5.46666670	     -0.10878358	      3.48081647	      6.98591065	     -0.10987363	      1.16064411	      0.11619953	      3.70621293	     -3.32944539	     -0.84653783	      4.50307115	      0.07859342	     10.11462282	     -2.96830777	     -7.49999987	      4.16252350	      2.40397818	      4.40890773	      3.19602234	      0.05578111	      5.28223590	     -1.15981272	     -7.49999987	     -1.80462750	      0.11156389	      7.70613239	    -11.63638475	     -1.76431016	     11.66005352	     22.24332218	    103.21622271	      1.01318913	      1.04904601	    147.44553894	     24.92378539	    107.57908035
      5.48333330	      0.41050553	      3.54818870	      7.01156519	     -0.10958761	      1.16005424	      0.11778774	      3.07885302	     -3.24138353	     -1.20481000	      3.93888010	      0.06874643	      9.75413767	     -2.11317968	     -7.49999987	      3.55985189	      2.30019009	      4.18945440	      2.87031563	      0.05009646	      4.74232407	     -0.86805577	     -7.49999987	     -2.89243011	     -0.13855734	      6.54186109	     -9.30209639	     -1.96731529	      9.77654737	     19.62875432	    102.74209483	      0.69106181	      0.69003943	    151.49140374	     21.76327040	    106.28773685
      5.50000000	      0.95553778	      3.59706374	      7.17173779	     -0.10306015	      1.15180911	      0.11645525	      2.43936432	     -3.16809162	     -1.08255565	      3.79023548	      0.06615209	     10.08897774	     -1.80277759	     -7.49999987	      2.93610866	      2.20944412	      4.20490057	      3.00224854	      0.05239912	      4.89686226	     -0.83110920	     -7.49999987	     -3.73431225	     -0.26199567	      6.18722192	     -8.06944447	     -2.75361924	      9.17412296	     19.19352066	    102.77751202	      1.64927828	     -0.54695292	    152.25516542	     21.19576592	    105.99326181
      5.51666670	      1.44726088	      3.58220962	      7.33215114	     -0.10332402	      1.15265393	      0.11545855	      1.81199989	     -3.10184704	     -1.37018595	      3.87175455	      0.06757486	     10.49430686	     -1.65706681	     -7.49999987	      2.46872654	      2.10827567	      4.10447739	      3.16134737	      0.05517592	      5.29867536	     -0.42151427	     -7.49999987	     -4.33030479	     -0.34446535	      6.05744315	     -6.82661695	     -3.46084503	      7.73466666	     18.06230137	    100.69371644	      3.37426112	     -1.15155932	    156.72913434	     19.79534376	    102.41998958
      5.53333330	      1.87993828	      3.57735347	      7.44385853	     -0.11029997	      1.14650361	      0.11677021	      1.54990361	     -3.06016429	     -1.49672206	      4.19270524	      0.07317651	     10.53880692	     -2.32103096	     -7.49999987	      2.28965572	      2.04969418	      4.11439341	      3.62726924	      0.06330779	      6.00595584	     -0.47107745	     -7.49999987	     -5.08613968	     -0.42278388	      5.49376998	     -4.98868847	     -4.24345876	      5.76164106	     16.99652030	    101.72194990	      4.87057163	     -2.23782551	    158.18743299	     17.97159651	     99.25887096
      5.55000000	      2.35469966	      3.58428789	      7.58429719	     -0.10656500	      1.14456817	      0.11619674	      1.06671755	     -3.00089136	     -1.56423242	      4.47688439	      0.07813637	     10.65692975	     -2.85669146	     -7.49999987	      2.00693906	      1.99344274	      4.28750421	      4.00326990	      0.06987024	      6.51457397	     -0.43619761	     -7.49999987	     -5.59424998	     -0.50850120	      5.21863154	     -3.77065633	     -5.34393360	      5.56984014	     17.09083015	    101.73614899	      6.37748330	     -3.43368000	    158.47912744	     16.74683006	     99.13971101
      5.56666670	      2.77522150	      3.61738219	      7.69024466	     -0.10356971	      1.14259762	      0.11485717	      0.57716567	     -2.97435751	     -1.43077989	      4.70228583	      0.08207037	     11.06500095	     -3.22239315	     -7.49999987	      1.63482486	      1.96513477	      4.35943244	      4.43625891	      0.07742732	      7.29894210	     -0.31698501	     -7.49999987	     -5.98340903	     -0.58959161	      4.66500971	     -2.29791988	     -6.45585134	      6.56012860	     17.10672144	    101.55537301	      6.95016202	     -4.16570231	    163.16272675	     13.32428810	     97.66581436
      5.58333330	      3.14950516	      3.56605453	      7.71037007	     -0.10226863	      1.14187086	      0.11499024	      0.12316937	     -2.89065932	     -1.38715984	      5.07161522	      0.08851638	     11.29649525	     -3.81007892	     -7.49999987	      1.34586500	      1.85637047	      4.45696746	      4.87491814	      0.08508337	      7.93220851	     -0.31374325	     -7.49999987	     -6.22029291	     -0.49853559	      4.44778964	     -1.07792905	     -7.50543861	      6.71311437	     17.31078498	    101.33119969	      7.68056934	     -4.87790084	    168.78004526	     10.18819589	     97.01261501
      5.60000000	      3.35029623	      3.58054017	      7.39703823	     -0.10273094	      1.14368222	      0.11752805	     -0.02409267	     -2.80630491	     -0.95034259	      5.50082184	      0.09600745	     11.57341019	     -4.38375341	     -7.49999987	      1.29828598	      1.80721924	      4.32724833	      5.42757371	      0.09472903	      8.47243890	     -0.63337316	     -7.49999987	     -6.21904449	     -0.55733394	      5.01493254	     -0.26885690	     -8.35831291	      6.39174371	     17.57547360	     98.87561676	      8.82642552	     -6.44991982	    162.87131016	      8.54900128	     94.37664430
